<svg width="40" height="40" viewBox="0 0 40 40" fill="none" xmlns="http://www.w3.org/2000/svg"><path fill-rule="evenodd" clip-rule="evenodd" d="M29.9138 35.0338L39.84 0L5.40332 10.2143L14.0574 19.4865L16.2505 17.4395L10.9046 11.7117L35.4679 4.426L28.3941 29.3922L22.6965 23.8845L20.6114 26.0415L29.9138 35.0338ZM11.1856 22.8733L13.1539 24.8417L22.5933 15.4023L24.7146 17.5237L15.2753 26.963L17.2436 28.9314L7.18658 39.617L0.5 32.9304L11.1856 22.8733ZM11.1223 27.0527L4.8079 32.9956L7.12132 35.3091L13.0643 28.9947L11.1223 27.0527Z" fill="#996830"/></svg>
<svg width="20" height="20" viewBox="0 0 20 20" fill="none" xmlns="http://www.w3.org/2000/svg"><g clipPath="url(#clip0_2665_570)"><path d="M14.1668 5.83301L5.8335 14.1663" stroke="white" strokeWidth="1.5" strokeLinecap="round" strokeLinejoin="round"/><path d="M6.6665 5.83301H14.1665V13.333" stroke="white" strokeWidth="1.5" strokeLinecap="round" strokeLinejoin="round"/></g><defs><clipPath id="clip0_2665_570"><rect width="20" height="20" fill="white"/></clipPath></defs></svg>