<svg width="20" height="16" viewBox="0 0 20 16" fill="none" xmlns="http://www.w3.org/2000/svg">
<path d="M19.58 3.05006C20 4.65006 20 7.99006 20 7.99006C20 7.99006 20 11.3301 19.58 12.9301C19.36 13.8101 18.68 14.5101 17.82 14.7501C16.26 15.1901 10 15.1901 10 15.1901C10 15.1901 3.74 15.1901 2.18 14.7501C1.32 14.5101 0.64 13.8101 0.42 12.9301C0 11.3301 0 7.99006 0 7.99006C0 7.99006 0 4.65006 0.42 3.05006C0.64 2.17006 1.32 1.47006 2.18 1.23006C3.74 0.810059 10 0.810059 10 0.810059C10 0.810059 16.26 0.810059 17.82 1.23006C18.68 1.47006 19.36 2.17006 19.58 3.05006ZM8.12 11.4301L13.12 8.31006L8.12 5.19006V11.4301Z" fill="#996830"/>
</svg>
